<svg xmlns="http://www.w3.org/2000/svg" viewBox="0 0 62.61 75.46"><defs><style>.cls-1{opacity:0.6;}.cls-2,.cls-3{fill:#fff;}.cls-2{fill-rule:evenodd;}</style></defs><title>Recurso 2</title><g id="Capa_2" data-name="Capa 2"><g id="Capa_1-2" data-name="Capa 1"><g class="cls-1"><path class="cls-2" d="M44.81,75.46c-1.78-.78-1.78-.78-2.45-1.94L45.08,72l-.27-.44c-1.8.54-3.55,1.13-5.33,1.58A34,34,0,0,1,28.75,74a30.12,30.12,0,0,1-10.82-2.8,1.77,1.77,0,0,0-.69,0l0,.22,3.09,1.88a29.14,29.14,0,0,1-3.07,1.65,1.93,1.93,0,0,1-1.47-.2c-1.66-.92-3.28-1.92-4.89-2.92-1.2-.74-1.3-1.57-.37-2.6L12,67.57l-1.93-1.69a2.89,2.89,0,0,1-.65-4c.28-.49.63-.94.91-1.44.45-.82.91-1.65,1.3-2.51.54-1.22,1.09-2.42,2.54-2.8A7.84,7.84,0,0,1,15.31,55c.18-1.12-.56-1.8-1.19-2.53l-3.48-4.05a2.46,2.46,0,0,0-.4.59c-.59,1.79-1.23,3.58-1.7,5.4A1.43,1.43,0,0,1,7.3,55.68c-.78.2-1.52.52-2.27.79-.21.08-.4.26-.61.28a.82.82,0,0,1-.58-.22c-.06-.07,0-.41.17-.52.33-.3.75-.5,1.07-.81a1.93,1.93,0,0,0,.61-.88c.28-1.23.4-2.5.74-3.71.28-1,.82-2,1.17-3a5.2,5.2,0,0,0,.1-1.26c-1.09,0-1.09,0-1.52-1.37a.3.3,0,0,0-.13,0c-1.41.43-1.75.21-1.85-1.27a7.4,7.4,0,0,1,0-1.63A1.83,1.83,0,0,0,3.32,40l.52-.56.89.81c.19-.38.52-.71.49-1-.06-.57-.55-.85-1.12-.91s-1.27-.06-1.89-.14a2.6,2.6,0,0,1-.69-.34c.14-.23.23-.55.43-.69.51-.33,1.09-.55,1.61-.86a4.05,4.05,0,0,0,.8-.69A3.74,3.74,0,0,0,4.69,35c.46-.67,1.06-.78,1.56-.16a2.24,2.24,0,0,0,1.81.93c.58,0,1.37.29,1.39.95,0,.33-.74.71-1.16,1-.16.12-.39.14-.56.25a3.47,3.47,0,0,0-.36.31c.16.14.32.39.46.38,1.7-.15,2.44,1,3,2.25s.93,2.39,1.42,3.58a1.15,1.15,0,0,0,.58.57,12,12,0,0,1,4.08,2.17c.75.69,1.55,1.33,2.29,2a2.66,2.66,0,0,0,2.08.57c-.41-5-.07-10.09-.22-15.19H41.63V49.83A2.45,2.45,0,0,0,43.86,49a21.3,21.3,0,0,1,3-2.49,31.44,31.44,0,0,1,3.1-1.46,1.3,1.3,0,0,0,.6-.67,16,16,0,0,1,2.23-4.77,1.81,1.81,0,0,1,1.71-.89,1.4,1.4,0,0,0,.61-.07.53.53,0,0,0,.33-.34c0-.09-.16-.27-.29-.34a13.89,13.89,0,0,1-1.39-.7c-.6-.39-.61-.78,0-1.12a4.77,4.77,0,0,1,1.53-.47,1.23,1.23,0,0,0,.94-.52c.76-1.1,1.59-1,2.16.22a1.48,1.48,0,0,0,1,.94,6.56,6.56,0,0,1,1.6.87c.15.11.34.43.28.54a.81.81,0,0,1-.56.38c-.58.08-1.17.07-1.76.14a2.39,2.39,0,0,0-1,.29c-.64.43-.56.94.23,1.57L59,39.4l.41.41c0,.12,0,.18-.07.2a1.93,1.93,0,0,0-.75,2.13,7.47,7.47,0,0,1,0,1.83c-.12,1.15-.45,1.35-1.58,1.06l-.31-.1c-.42.55-.21,1.68-1.39,1.36-.42.63-.13,1.12.1,1.71a19,19,0,0,1,1.66,6,1.35,1.35,0,0,0,.86,1.38,2.89,2.89,0,0,1,.9.71c.11.1.22.38.17.45a.64.64,0,0,1-.5.25,3.78,3.78,0,0,1-.74-.29,22.07,22.07,0,0,0-2.2-.77c-.86-.21-1-.44-1.25-1.26-.52-1.86-1.16-3.69-1.77-5.53,0-.15-.21-.27-.37-.46l-3,3.42a6.2,6.2,0,0,1-.53.62,3.69,3.69,0,0,0-1.25,2.93.57.57,0,0,0,.16,0c2.33,0,3,.6,3.72,2.88a16.39,16.39,0,0,0,1.93,4.08,2.61,2.61,0,0,1-.07,3.25A22.73,22.73,0,0,1,51.09,68a7.07,7.07,0,0,1-.61.52c.39.4.75.77,1.1,1.15A2,2,0,0,1,51,73.1c-1.52.77-3,1.57-4.54,2.36ZM27.51,55.85c-1.87-3.11-3.73-6.23-5.64-9.42a24.51,24.51,0,0,0,.21,2.75,8.58,8.58,0,0,0,5.44,6.66c1.27.63,2.53,1.28,3.81,1.88a1,1,0,0,0,.7-.09,24.21,24.21,0,0,0,6-3.35c2.51-2,3.06-4.79,3-7.8a16.84,16.84,0,0,0-1.12,1.92,39.43,39.43,0,0,1-4.06,6.89,1.15,1.15,0,0,1-1,.5c-1.29,0-2.58,0-3.87,0S28.66,55.83,27.51,55.85ZM11.45,48.13A24,24,0,0,0,13.11,50c1.34,1.24,2,3.21,4.24,3.58L16,55.21a5.8,5.8,0,0,1,1.41.95c1.34,1.59,2.66,3.21,3.86,4.9a3.58,3.58,0,0,1,.19,3.7c-.14.3-.29.59-.45.93.4.2.71.38,1,.51a26.31,26.31,0,0,0,18.69.42c1.07-.37,1.06-.38.82-1.45a5.28,5.28,0,0,1,1.71-5.71,8.09,8.09,0,0,0,1.32-1.72,4.52,4.52,0,0,1,2.44-2.21l-1.67-2c1.47,0,2.11-1,2.81-1.81.09-.11.19-.2.28-.3l2.87-3.27a4.28,4.28,0,0,0-3.28,1.5,18.2,18.2,0,0,0-1.35,1.28c-.24.32-.4.5-.79.42a.44.44,0,0,0-.33,0c-.54.58-1.24.41-1.9.44a.72.72,0,0,0-.36.1,1.07,1.07,0,0,1-1.41-.32l-.7-.92A8.26,8.26,0,0,1,38.3,55a28.29,28.29,0,0,1-6.37,3.46,1.33,1.33,0,0,1-.94,0c-1-.41-1.86-.94-2.82-1.34-3.05-1.28-5.5-3.15-6.55-6.51l-.74,1a1.13,1.13,0,0,1-1.26.42l-1.2-.21a5.68,5.68,0,0,1-.72-.11c-.45-.15-.88-.33-1.21-.46C15,49.85,13.77,48.2,11.45,48.13ZM43,65.16l.07,0V63c.19.62.35,1.17.52,1.71l.09,0-.15-1.9h.08l.63,1.65.09-.05-.39-2.84H44c.3,1,.59,2,.88,2.92l.21-.06-.45-2.27.1,0L45.46,64l.14,0c-.14-1-.29-2-.44-3l.14,0,.81,2.69c.54-.1.48-.36.34-.7a8.19,8.19,0,0,1-.68-4,2.6,2.6,0,0,1,1.69-2.32l-.34.55.46.15-1.23.83.94.06-.95.73.15.17.77-.12-.93.8.82,0c-.22.29-.43.54-.68.86l1,0c-.3.2-.47.31-.63.43a1.2,1.2,0,0,0-.16.17,2.62,2.62,0,0,1,.41.25c.22.22,1.37.38,1.55.18,1.14-1.23,2.08-2.9.73-4.68,0,0,0-.07,0-.11a2.53,2.53,0,0,1,.54,3.56,15.12,15.12,0,0,1-6.61,5.68,26.06,26.06,0,0,1-16.29,2,27.07,27.07,0,0,1-10.74-4.47,8.19,8.19,0,0,1-3.52-4.6,2,2,0,0,1,.63-2.33.88.88,0,0,1,.23-.06l-.21.54h.49c-.21.28-.39.52-.63.86l.75-.07c-.19.24-.35.45-.6.75l.91-.18-.66.85,1.3-.33L13.87,60.5l1-.33-.26.45.88,0-.61.68,1,.08c-.05.39-.09.73-.13,1.07a6.14,6.14,0,0,0,1-1.63,8.79,8.79,0,0,0,.54-1.88,2.39,2.39,0,0,0-1.16-2.49,1.85,1.85,0,0,1,1.52,1.47,5.4,5.4,0,0,1-.12,1.92,21,21,0,0,1-.81,2.26l.07,0,.64-1,.09.06-.51,1.57.07,0,.9-1.16.1.06c-.15.45-.29.91-.44,1.36l.09,0,1.1-1.48c-.09.52-.15.88-.21,1.24l.08,0,.49-.78.08,0L19,63.52l.09,0,.59-1,.07,0c-.07.39-.13.78-.23,1.35l.81-1.25c-.16.68-.27,1.18-.43,1.85.37-.51.64-.87.9-1.24l.1.06-.15,1.41a3.1,3.1,0,0,0,0-3.69,36.49,36.49,0,0,0-3.52-4.4c-1.66-1.68-3.58-1.62-4.74.78-.11.24-.19.51-.3.75-.35.71-.68,1.42-1.06,2.11s-.78,1.17-1.14,1.77a2.27,2.27,0,0,0,.49,3.26,28.55,28.55,0,0,0,2.23,1.89A29.78,29.78,0,0,0,28.21,73.4a34.43,34.43,0,0,0,10.08-.53,31,31,0,0,0,12-5.1A6.93,6.93,0,0,0,53,64.63,1.66,1.66,0,0,0,52.86,63a14.31,14.31,0,0,1-2.27-5,2.25,2.25,0,0,0-2-2,3,3,0,0,0-3,1.23c-.82,1.11-1.68,2.18-2.57,3.23A4.24,4.24,0,0,0,42,62.76a5.6,5.6,0,0,0,.51,3V63.33C42.7,64.07,42.85,64.62,43,65.16ZM29.85,47.86H30c.5-4.14,1-8.27,1.51-12.43H22a2.52,2.52,0,0,0-.06.29q0,4.8,0,9.6a.8.8,0,0,0,.17.48c1,1.2,2,2.39,3.05,3.57.82,1,1.65,1.89,2.48,2.84-1.16-3.26-2.77-6.29-3.8-9.57a23.15,23.15,0,0,1,1.55,2.3c.48.76,1,1.52,1.49,2.27s1,1.46,1.55,2.18l.15-.08c-1.22-4-2.31-8-3.13-12.06l.19-.05Q27.76,42.53,29.85,47.86ZM35.32,52l.09.05.21-.22c1.62-1.81,3.2-3.65,4.88-5.4a2,2,0,0,0,.64-1.58c0-2.91,0-5.81,0-8.72v-.71H31.7c.51,4.13,1,8.2,1.51,12.26l.18,0q2-5.33,4-10.65l.32.1q-1.57,6.11-3.14,12.2l.15.07,4.41-6.82.28.15Q37.35,47.38,35.32,52Zm-6.13-1.4-.28.14-3.23-4.52a.37.37,0,0,0,0,.28q1.43,3,2.84,6.05a3.91,3.91,0,0,1,.14.94,3.37,3.37,0,0,1-.72-.4q-2.19-2.41-4.36-4.85s-.05.1,0,.13c1.26,2.21,2.51,4.44,3.8,6.64a1,1,0,0,0,.78.36c2.18,0,4.36,0,6.54,0a1.18,1.18,0,0,0,.87-.44c.94-1.44,1.84-2.91,2.71-4.39.45-.77.81-1.58,1.21-2.38a.59.59,0,0,0-.38.24c-1.3,1.49-2.59,3-3.91,4.45a3.21,3.21,0,0,1-.71.46l-.12-.18q1.53-3.53,3.08-7c-1,1.36-1.94,2.76-2.87,4.15a4,4,0,0,1-.5.51l-.24-.13L35.71,43l-.12,0-2.36,6L33,48.91c-.44-3.47-.89-6.94-1.33-10.42l-.11,0L30.19,48.89l-.27,0c-.16-.31-.34-.6-.48-.92l-2.13-5.17a2.22,2.22,0,0,0-.21-.34C27.65,45.35,28.85,47.88,29.19,50.61Zm-8-.53a2.94,2.94,0,0,1-2.56-1,8,8,0,0,0-.86-.77,12.52,12.52,0,0,0-5.06-3,1.42,1.42,0,0,1-.69-.75c-.65-1.43-1.2-2.9-1.87-4.32A2,2,0,0,0,7.63,39c.24.47.48.93.72,1.41a3.73,3.73,0,0,0-.82,0c-.38.1-1,.19-1,.44a1.54,1.54,0,0,0,.29,1.15A13.75,13.75,0,0,0,8,43.6a2.43,2.43,0,0,0,1.82,1.14,3.54,3.54,0,0,1,1.07.46l0,.25-1.73.32c.5.48.83,1,1.3,1.19s.93-.19,1.44-.31c0,.11,0,.27-.06.44.46-.13.88-.28,1.32-.36s.57.14.33.52-.39.53-.58.77c.42.25.84.47,1.21.74a7,7,0,0,1,1.62,1.31,3.77,3.77,0,0,0,1.93,1.32,3.81,3.81,0,0,0,.75.22A2.7,2.7,0,0,0,21.21,50.08ZM41.6,50c0,.07,0,.13,0,.2.26.28.5.58.77.85A2.59,2.59,0,0,0,45,51.5a6.68,6.68,0,0,0,2.07-1.36A15,15,0,0,1,49.88,48l-.73-1.17a1.78,1.78,0,0,1,.48-.08c.46.1.91.22,1.37.34V46.5c.53.21.85,1,1.47.48a12.92,12.92,0,0,0,1.22-1.23L52,45.47l-.06-.3,1.23-.48a3.19,3.19,0,0,0,1.13-.53,21,21,0,0,0,1.91-2.38c.5-.72.19-1.24-.7-1.32-.35,0-.71,0-1.08,0l.78-1.41a2,2,0,0,0-2.46,1,16.06,16.06,0,0,0-2,4.5,1.59,1.59,0,0,1-.78.82c-1.13.6-2.32,1.07-3.42,1.7a11.78,11.78,0,0,0-1.79,1.46C43.88,49.28,43.12,50.35,41.6,50ZM61.27,37.71a6.86,6.86,0,0,0-1.14-.78A3.38,3.38,0,0,1,57.86,35c-.19-.54-.68-.52-1.09-.13a2.17,2.17,0,0,0-.4.46,1,1,0,0,1-.86.5,7.63,7.63,0,0,0-1.72.54c-.31.12-.37.45,0,.62a7.4,7.4,0,0,0,2.39,1A32,32,0,0,0,60.51,38,3.18,3.18,0,0,0,61.27,37.71ZM7.11,54.9l-.18-.24c1.65-.19,1.53-1.54,1.89-2.56.13-.36.22-.74.35-1.1s.35-1,.57-1.58c-2.17,1.77-2.17,1.77-3,1.69l1.8-1.63-.9.12-.1-.16.85-.89-.33-.28.75-.71L8,47.29a20.71,20.71,0,0,0-1.83,5.34c-.16.85-.69,1.81.15,2.65,0,0,0,.16,0,.28.63-.27,1.45.13,1.87-.66ZM1.66,37.51c0,.12.07.23.11.34.41,0,.82.11,1.24.15s.9,0,1.34.1a6.3,6.3,0,0,0,4.68-1c.34-.21.33-.52,0-.68a5,5,0,0,0-1.51-.5,1.41,1.41,0,0,1-1.14-.66c-.62-.84-1.17-.76-1.66.17a1.89,1.89,0,0,0-.11.25,1.34,1.34,0,0,1-1,.89A13.4,13.4,0,0,0,1.66,37.51Zm52.49,12c.42.33.76.56,1.05.83a10.4,10.4,0,0,1,.7.79,3.33,3.33,0,0,1-.25.28l-2.48-1.79c.34,1.08.73,2.21,1,3.35.2.74.37,1.43,1.26,1.61.11,0,.2.16.43.35H54.62c.47.77,1.25.45,1.87.63,0-.14,0-.36.06-.38.6-.24.36-.68.29-1.08,0-.11,0-.22,0-.33a20.58,20.58,0,0,0-2-6.44l-.93.31c1,.48,1,.61.52,1l.84.89-.11.17Zm-35.09,24c0-.08,0-.16,0-.23l-4.82-2.92a4.72,4.72,0,0,1-.77.57,7,7,0,0,1-1.71.5.77.77,0,0,1-.86-.77,3,3,0,0,1,.36-1l.22.09a.93.93,0,0,1,0,.24c-.13.31-.38.7.06.87a1.23,1.23,0,0,0,1-.08,9.94,9.94,0,0,0,1.24-1.27l-.29,0c0-.17-.05-.33-.08-.52l-.47.31v-.65l-.53.1c0-.19,0-.33-.06-.6L11,69.57c-.73.82-.67,1.22.29,1.81,1.43.87,2.86,1.72,4.3,2.58a3.27,3.27,0,0,0,.33.14l0-.09L12.6,71.77,14,71c0,.19,0,.35,0,.53l.67-.15c-.09.22-.15.37-.25.58l.94-.33-.3.62,1.11-.14c-.09.24-.16.42-.26.66l.8-.15c-.05.24-.1.42-.15.63L18,73.12c-.05.15-.11.33-.22.69Zm26.36,1.41,0,.13a3.36,3.36,0,0,0,.9-.2c1.6-.79,3.18-1.61,4.77-2.41A1,1,0,0,0,51.67,71a16.52,16.52,0,0,0-1.35-1.91l-.17.12.91,1.23a.84.84,0,0,1-.1,1.31,1,1,0,0,1-1.4,0,10.92,10.92,0,0,1-.87-.91l-5.55,3,.89,1V74l.67.21-.17-.77,1,.51c-.1-.28-.16-.47-.26-.74l.8.48c-.06-.27-.11-.45-.16-.68l.7.23c-.06-.18-.11-.32-.17-.52l.9.27L47,72.35l.85.3L47.58,72l.91.29c-.09-.26-.16-.44-.27-.77l1.91.7c0,.09,0,.18,0,.27ZM48.84,70l-.12.12a11,11,0,0,0,1.06,1.36.67.67,0,0,0,1-.81,8.46,8.46,0,0,0-1-1.29s-.08,0-.13,0,0,.26.07.43l-.67-.35.29.74ZM56,44.31l-1,1.32C55.81,45.89,56.08,45.55,56,44.31ZM7.89,45.68l-1.2-1.53C6.77,45.58,7,45.84,7.89,45.68Zm46.4.23H54c-.07.33-.13.65-.2,1l.75,0C54.44,46.56,54.36,46.24,54.29,45.91Zm-45.45,0H8.52l-.21,1,.76-.06Z"/><path class="cls-2" d="M33.78,0,37.5.27c7,.6,13.7,2,19.84,5.47a43.32,43.32,0,0,1,4.12,3c.44.33.44.65,0,1.11-.91,1.07-1.74,2.2-2.61,3.31A22,22,0,0,1,61,14.91a22.78,22.78,0,0,1,1.64,2.24l-4.3,2.14c1,1.33,2.06,2.6,3.07,3.88A5.85,5.85,0,0,1,62,24a.76.76,0,0,1-.7,1.21,7.65,7.65,0,0,1-1.7-.4,11.17,11.17,0,0,1-1.15-.45c.21.64.39,1.18.58,1.72a1,1,0,0,1-.32,1.21A1.07,1.07,0,0,1,57.32,27l-3.87-3.62c-.72-.67-1.45-1.32-2.15-2s-.64-1,.07-1.62c.55-.47,1.13-.9,1.75-1.37-.94-.43-1.85-.83-2.75-1.25a5.06,5.06,0,0,1-1-.58,1,1,0,0,1-.09-1.55c.48-.51,1-1,1.62-1.62-13.16-4.62-26.16-4.32-39.21,0,.51.57.93,1.06,1.37,1.53.67.71.62,1.41-.23,1.88s-1.8.86-2.7,1.29l-.84.41,1.85,1.34A11.66,11.66,0,0,1,12.67,18a1.71,1.71,0,0,1,2.24.27c.31-2.08,2.15-4.17,4-4.39a10,10,0,0,1,3.32,0,6,6,0,0,1,3.48,2c1.07,1.34.79,4.1-1.55,4.37-.16,0-.3.2-.44.33a7.6,7.6,0,0,1-1,1,.87.87,0,0,1-1.37-.72,11.16,11.16,0,0,1,0-1.15l-1.7-.6a2.54,2.54,0,0,0-1.07,2.77c.83-1.07,1.1-1,2,.59a6.42,6.42,0,0,1,1.83.42c.49.3.82.87,1.31,1.27a.74.74,0,0,0-.07-.21c-.52-1-.3-1.47.87-1.48a14.57,14.57,0,0,1,1.69.19c.47-.74.85-.94,1.42-.6a13.82,13.82,0,0,1,1.32,1.05,4.62,4.62,0,0,1-.64-1.58c0-.6.56-1,1.29-1-.16-.66.19-1,.69-1.27a6.08,6.08,0,0,0,.92-.91,1.05,1.05,0,0,1,.52-.36c.13,0,.3.21.44.34s.45.44.7.62.41.19.6.3c.67.41.72.85.28,1.48.39,0,1-.07,1.26.17.67.57.27,1.32,0,2,.4-.14.73-.29,1.08-.39,1-.28,1.18-.13,1,1,.49-.45.93-.86,1.38-1.25a5.11,5.11,0,0,1,.62-.41,7.06,7.06,0,0,1,.4.65,1.83,1.83,0,0,0,.14.5c.09-.24.2-.47.28-.72A1.92,1.92,0,0,1,41.63,21a.74.74,0,0,1,.86.75,7.68,7.68,0,0,1,0,1,2,2,0,0,0,.2-2A10.7,10.7,0,0,0,42,19.06c-.28-.53-.52-1.12-.1-1.58a3.93,3.93,0,0,1,1.35-.63c-.21-.37-.71-.27-1.13-.22s-.73.49-.8,1a9.8,9.8,0,0,1-.18,1.55,4,4,0,0,1-.74,1.41c-.5.61-.9.57-1.47,0,0,0-.09.05-.11.08-.65,1-.84,1-1.6.14a4.64,4.64,0,0,1-1.3-2.13,5.85,5.85,0,0,1,.71-3.8,3.66,3.66,0,0,1,2.33-1.41,7.88,7.88,0,0,1,6.19,1,2.79,2.79,0,0,1,1.39,1.86,5.57,5.57,0,0,1-.1,1.37A13.39,13.39,0,0,1,48.13,17c1-.27,1.77.38,2.49.92.45.35.21,1-.47,1.52a.2.2,0,0,0,0,.13c.46,1.26.22,1.55-1.12,1.33a7,7,0,0,1-.79-.2l-.73.48a14.37,14.37,0,0,1,1.82.25,1,1,0,0,1,.85,1.15c0,.16.18.35.31.5a5.9,5.9,0,0,1,.9,1.05c.32.64,0,1.06-.69,1.1-.35,0-.71,0-1.13,0,.21.54.69,1,.12,1.47a12,12,0,0,1,2,1.64,23.76,23.76,0,0,0,1.89,2.53c.65.63.48,1.1-.33,1.48.59,2.3.19,3.44-1.71,4.88a1.16,1.16,0,0,0-.47,1.58.78.78,0,0,1-.14.7.67.67,0,0,1-.64,0,12.77,12.77,0,0,1-1.08-1.11,3.22,3.22,0,0,1-3.84.1c-.64-.39-1.24-.86-1.9-1.21a2.42,2.42,0,0,1-1.38-2.11,20,20,0,0,1,.09-2.1c-1.44,1.32-3.3,1.17-5.17.87a3.66,3.66,0,0,1-1.1-.51.82.82,0,0,1-.35-1c.21-.92.34-1.85.51-2.78l-.3-.07c-.28,1.08-.57,2.15-.84,3.18H28c-.29-1-.62-2.18-.94-3.31l-.31,0c0,.62,0,1.24,0,1.85.17,2.42-1.71,2.78-3.31,2.41a3.66,3.66,0,0,1-2.71-2.63,2.4,2.4,0,0,1-.12-.53c-.1-1.09.29-1.42,1.3-1.17l.87-.83c-.07-.28-.16-.6-.25-.94a1.26,1.26,0,0,0-.36.19,2.46,2.46,0,0,1-2.47.73A3.52,3.52,0,0,0,17,30.29c-.07.3.15.68.24,1-1.11.13-1.53-.16-1.76-1.26-1,.52-1.13.93-.47,1.82.14.2.28.58.18.71a.86.86,0,0,1-.73.35,10.09,10.09,0,0,1-1.44-.7c-.22,1,0,1.34,1,1.62.47.13,1,.27.94.89s-.5.75-1,.86a3,3,0,0,0-.81.19l2.59.39.33-.69c-.65-.15-1.09-.56-1-1.25,0-.2.52-.32.74-.44-.18-.48-.38-1-.64-1.76,1.27,0,2.39-.28,3.31.63a.69.69,0,0,0,.35.15,2.22,2.22,0,0,1,1.91,2,4.36,4.36,0,0,1-1.15,3.7,3.07,3.07,0,0,1-2.29,1c-1.31,0-2.64.14-3.85-.57-.29-.18-.57-.39-.87-.6-1.17,1.07-1.76,1.1-2.71.08.21-.13.42-.25.62-.39.67-.45.67-.73.43-1.49a19.43,19.43,0,0,1-.43-2.44,3.19,3.19,0,0,1-.79.3.86.86,0,0,1-.72-.18.83.83,0,0,1,0-.74,7.58,7.58,0,0,1,.68-.84c.49-.68,1-1.38,1.46-2.07a5.31,5.31,0,0,1-1-.8A1,1,0,0,1,10,29c.05-.14.44-.18.69-.23a9.73,9.73,0,0,0,1.54-.28c.78-.3,1.51-.71,2.3-1.09-.55-1.14.93-.8,1.12-1.57-.36.06-.69.12-1,.16-.63.08-1.27.24-1.71-.45-.08-.13-.35-.17-.53-.18-.51,0-1,0-1.44,0,.39-.74.74-1.43,1.11-2.11a.91.91,0,0,1,.32-.35c.82-.36,1.65-.7,2.58-1.09l-3.1-1L9.42,23.07,5.3,26.94c-.42.4-.91.68-1.46.34s-.46-.93-.29-1.46.35-.91.56-1.46c-.7.25-1.29.49-1.9.7a1.87,1.87,0,0,1-.86.13,1.23,1.23,0,0,1-.83-.42,1.07,1.07,0,0,1,.11-.93c.68-.93,1.43-1.81,2.14-2.72.46-.58.91-1.18,1.44-1.87L0,17.3v-.14a8.93,8.93,0,0,1,3.66-4L.46,9.26a8.36,8.36,0,0,1,.92-.95A36.37,36.37,0,0,1,4.84,5.83C11,2.25,17.73.9,24.68.28,26,.16,27.3.09,28.61,0Zm7.37,28.87-1.49-1a.93.93,0,0,1-.5,1.41l.69.61c-.13-.74,0-1,.71-1l.61,0c.3.29.59.59.9.87a.89.89,0,0,0,.37.22.77.77,0,0,1,.63,1c-.07.39-.2.76-.27,1l1.28-.21c.88-.59,1.81-.8,2.35-.37a1.61,1.61,0,0,1,.36,1.91c.27.3.66.54.7.83s-.25.67-.39,1a2.79,2.79,0,0,0,3.07-1,8.24,8.24,0,0,1-1.62.21,1.07,1.07,0,0,1-.71-.67c-.06-.21.21-.58.41-.79a5.08,5.08,0,0,1,.76-.45,1.44,1.44,0,0,0,.36-2.25c-.8,1.61-1.34,2-2.15,1.58,0-.91,0-1.74,0-2.56,0-.34-.2-.57-.68-.56-1.13,0-2.27-.05-3.44-.09-.17.74-.5.89-1.3.51A3.32,3.32,0,0,0,41.15,28.87Zm15-13.47L61,9.25c-.5-.41-.93-.81-1.4-1.16a31.15,31.15,0,0,0-9.11-4.56A56.46,56.46,0,0,0,35.88.93,70.08,70.08,0,0,0,15.56,2.46,35.54,35.54,0,0,0,4,7.22c-.9.61-1.74,1.33-2.62,2,1.74,2.12,3.37,4.11,4.91,6C8,14.44,9.46,13.61,11,13A50.29,50.29,0,0,1,27.21,9.51,59.46,59.46,0,0,1,44.3,10.63,35.07,35.07,0,0,1,56.13,15.4ZM13.78,23.14c-.88-.24-1.22-.12-1.45.47-.16.43-.31.86-.51,1.41.59-.11,1.31,0,1.64-.35.61-.6,1.16-.31,1.76-.23a2.06,2.06,0,0,0-2,.83c.38.59.92.42,1.41.27a4.68,4.68,0,0,1,2.48.3l-2.3,1.08v.26a3.7,3.7,0,0,0,1.22.14,14.44,14.44,0,0,0,1.74-.71c.38-.16.77-.28,1.15-.42,0,.1.07.19.1.29-1.11.39-2.22.8-3.34,1.16-.64.21-1.31.31-1.94.54-1.12.42-2.07,1.36-3.48,1a1.71,1.71,0,0,0,.49.63c.82.58,1.08-.55,1.64-.6a7.67,7.67,0,0,0-1.06,1.58,6.15,6.15,0,0,1-1.51,2.29,6.86,6.86,0,0,0-.61.81l.17.21a9.85,9.85,0,0,0,.95-.37c.31-.15.59-.34.94-.55-.46,2.43-.14,3.63,1.13,4.44a3.11,3.11,0,0,0,2.8.15l-1.29-.17a5.29,5.29,0,0,1,1-.44c.19-.08.32-.31.48-.47a2.65,2.65,0,0,0-.61-.3c-.53-.1-1.09-.07-1.6-.22a1.22,1.22,0,0,1-.88-1.49c.34.19.67.5,1,.51a3.92,3.92,0,0,0,1.18-.4c-.27-.21-.53-.54-.84-.58a1.2,1.2,0,0,1-1.05-.91,4.22,4.22,0,0,1,.43-3.09,7,7,0,0,1,.62-.95C13,31,13,31.51,13.67,32.15c.32.32.69.57,1.18.27-1-1.65-.55-2.78,1.13-3-.06.55-.19,1.14.34,1.37l1-1.83-.24-.11a4,4,0,0,0,2.77-1.45,2.09,2.09,0,0,1,1.9-.82,2.53,2.53,0,0,0-2,1.44,1.93,1.93,0,0,0,1.75-.24,8.25,8.25,0,0,1,2-1,3,3,0,0,1,1,0c0,.06,0,.13,0,.19l-1.73.84c1.27,1.07,1.92-.3,2.82-.47-.38.53-.82,1-1.21,1.42-.14.18-.33.55-.26.64.42.54.08,1,0,1.53,0,.24,0,.65.12.73a1.26,1.26,0,0,0,.81,0c.18,0,.33-.22.5-.34.8-.58.75-1.48.89-2.32A4.9,4.9,0,0,1,28,26a5.89,5.89,0,0,1,4.61-1.17,4,4,0,0,1,3.66,3.37,8.89,8.89,0,0,1-.22,4,.8.8,0,0,0,.55,1.1,6.93,6.93,0,0,0,3.41.27,2.81,2.81,0,0,0,2.61-2.29,1.31,1.31,0,0,0,0-.83c0-.09-.45,0-.7,0-.23-1-.68-1.33-1.64-1l.57,1.26-.18.13-1-.42v1.29c0,1-.36,1.4-1.45,1.48,1-.26,1.09-1,1.19-1.84.14-1-.36-1.5-1.3-1.83a2.36,2.36,0,0,1,.87-.6c.5-.16.5-.44.22-.75a8.21,8.21,0,0,0-.93-.79,2.54,2.54,0,0,1,.84,0c1,.41,1.94.88,2.91,1.31a2.35,2.35,0,0,0,.6.06c-.08-.18-.15-.36-.23-.53s-.22-.47-.32-.7a7.14,7.14,0,0,0,4.7.69c-.59-1.27-2.05-.91-3-1.67a3.21,3.21,0,0,1,1.29-.25c.63,0,1.26.18,1.69-.4l-1.33-1.19a1.94,1.94,0,0,1,2,.44c.52.4,1,.8,1.58,1.16.11.08.32,0,.49,0a1.44,1.44,0,0,0-.06-.48c-.23-.37-.5-.71-.83-1.16.7.06,1.23.14,1.77.15a2.8,2.8,0,0,0,.72-.21c-.1-.27-.12-.62-.31-.79a10,10,0,0,0-1.3-.83c.41-.36.48-.74,0-1.09A2.24,2.24,0,0,0,47,22c-.51.37-1.09.66-1.64,1,.21-1.45,1.28-1.93,2.4-2.39L47.38,20c1-.08,1.63,1,2.58.4,0-.76-.53-1.06-1.19-1.25a5.64,5.64,0,0,0,1-.08c.26-.09.45-.37.67-.56-.19-.21-.37-.43-.57-.63s-.23,0-.31-.1a2.06,2.06,0,0,0-3,.72c-.38.67-.7,1.37-1.06,2.05-.15.3-.32.59-.48.88.4-2,.12-3.28-.85-3.75v1.8a11.21,11.21,0,0,0-.37-1.25c-.3-.67-.93-1-1.33-.71s-.27.88-.06,1.39a15.3,15.3,0,0,1,.89,2.54,1.72,1.72,0,0,1-1.28,2.08c.06-.52.13-1,.16-1.54s-.22-.7-.72-.53a1.44,1.44,0,0,0-1.14,1.1,2,2,0,0,1-1.19,1.62V22.28l-2.29,1.88V22.67c-.59.31-1,.56-1.5.79l-.53.22a1.69,1.69,0,0,1-.14-.6c0-.35.25-.69.28-1a1.2,1.2,0,0,0-.21-.85c-.11-.12-.54,0-.78.11-.46.2-.9.45-1.41.72-.15-.67.23-.89.52-1.15.85-.75.78-1.08-.28-1.53a7.62,7.62,0,0,1-1.07-.7c-.39.31-.89.73-1.41,1.12s-.46.53,0,.83a4.47,4.47,0,0,1,.77.66.62.62,0,0,1,.05.55.5.5,0,0,1-.47.1,2.26,2.26,0,0,1-.83-.63c-.33-.45-.58-.32-.88,0s-.23.57,0,.9c.33.51.6,1.06.9,1.59l-.24.23c-.35-.22-.71-.41-1-.65a11.6,11.6,0,0,0-1-.85.71.71,0,0,0-.69.11c-.11.13,0,.46.06.7,0,0,.11.07.16.11s.05.08.16.21c-1.17-.5-2.22-1-3.59-.47l1.34,1.66a1,1,0,0,1-.21,0,2.27,2.27,0,0,1-2.09-1.15c-.45-.73-.89-.86-1.46-.55.17.31.34.62.52.93l-.15.1a4.47,4.47,0,0,1-1.56-2c-.08-.2-.33-.32-.5-.48a3.06,3.06,0,0,0-.4.49,5.6,5.6,0,0,0-.33.8h-.2a4.23,4.23,0,0,1-.25-.58A3.25,3.25,0,0,1,19.13,19a1.12,1.12,0,0,0,.38-.84,1,1,0,0,0-1.63-.65,3.2,3.2,0,0,0-1.15,1.28c-.83,2.26-.54,3.73,1.4,5a3.83,3.83,0,0,0,1,.55c1.37.4,2.74.77,4.12,1.1.81.2,1.64.31,2.46.45a.45.45,0,0,1-.44.19,40.81,40.81,0,0,1-5.06-1.16,39.11,39.11,0,0,1-4.76-2.27C14.46,22.15,14.09,22.21,13.78,23.14ZM44,34.85l.2-.05c.06,1.51.29,3,1.91,3.58a2.8,2.8,0,0,0,3.4-1,2.14,2.14,0,0,0,1.31,1.89c-.71-1.3-.09-2,.79-2.68a5.39,5.39,0,0,0,1.38-2,2.14,2.14,0,0,0-.6-2.45c-.09.72-.19,1.48-.29,2.24l-.13,0V31.47a5.44,5.44,0,0,0,.75.26,3.67,3.67,0,0,0,.74,0c-.09-.24-.11-.57-.28-.71a6,6,0,0,1-1.65-2.21,1.74,1.74,0,0,0-.47-.58c-1.83-1.57-4-1.61-6.24-1.51,2.47.87,2.88,1.55,2.73,4.73,1.12-.24,1.44-.93,1.06-2.41.26.19.49.33.68.5A1.93,1.93,0,0,1,49,32.87a3.5,3.5,0,0,0-.54.29c-.12.09-.27.27-.25.39a.49.49,0,0,0,.33.35,2.18,2.18,0,0,0,.92-.08c.5-.19,1-.46,1.45-.69.33,1.28-1.26,2.35-3.78,2.53.29.65.91.55,1.58.65-1,.67-1.92.22-2.83.08a1.66,1.66,0,0,0,0,.32c.07.23.16.45.25.71a1.06,1.06,0,0,1-.31-1.59c.3-.44.72-.81,1.06-1.23s.31-.64-.29-.75c-.34-.06-.69-.08-1.17-.13a3.36,3.36,0,0,1,.61-.45c.54-.19.65-.53.46-1.06a.85.85,0,0,0-1.18-.58c-.52.16-1,.39-1,1.06a1.42,1.42,0,0,1-.21.52,1,1,0,0,1-.27-.62c0-.46-.27-.59-.62-.27-1.25,1.12-1.06,3.87.25,4.42-.06-.47-.12-.93-.19-1.39.37.74.36,1.64,1.13,2.14C44.31,36.6,44.17,35.73,44,34.85Zm-20-15a1.83,1.83,0,0,0,1.75-1.18,3,3,0,0,0-2.14-3.77l.24.62c-.48-.53-.81-1.16-1.69-1.26l.41.67L20.87,14l-.14.22.54.33c-1.24-.41-2.39-.73-3.6.16l1.19.12c-3.35.78-4.66,3.64-2.79,6.28.05-.45.1-.85.14-1.25A2.94,2.94,0,0,1,18,17.12a1,1,0,0,1,1.5.55,4,4,0,0,0,.64,1.11c.25.23.82.45,1,.32s.41-.68.53-1.06c.05-.17-.11-.39-.17-.59l.25-.05A8.54,8.54,0,0,1,22,18.72a8.65,8.65,0,0,1-.22,1.4c-.06.44-.24,1.07.3,1.16.35.06.86-.37,1.18-.69a1.88,1.88,0,0,0,.31-.94,3.28,3.28,0,0,0,0-.7l.16,0ZM39,19a4,4,0,0,0,.13.73,8.79,8.79,0,0,0,.41.81c.27-.18.68-.29.78-.54a8.74,8.74,0,0,0,.56-2.18c.13-1.37,1.13-2.07,2.37-1.47a3.73,3.73,0,0,1,1.27,1.07,13,13,0,0,1,1,1.8c.59-1.54-.07-2.69-2.21-3.79,1.65.1,2.3.94,2.75,3.44a9.28,9.28,0,0,0-.23-2.11c-.52-1.84-2.62-2.36-4.29-2.14a4.69,4.69,0,0,0-3.25,2.09,3.56,3.56,0,0,1,3-2.27c2.07-.31,3.85.16,5,2.16a4.18,4.18,0,0,0-.91-1.51,7.19,7.19,0,0,0-7.46-.83A2.47,2.47,0,0,0,36.53,16a17.63,17.63,0,0,0-.3,2.41,4.34,4.34,0,0,0,.3,1.15l.5-.8c-.45,1.12.24,1.67,1.09,2.31ZM34.3,29.73c.59-.29,1.07-.52,1.54-.78.08,0,.1-.24.09-.36a3.5,3.5,0,0,0-2.75-3.24,7.39,7.39,0,0,0-2.69-.11A4.16,4.16,0,0,0,27,28.33c-.12.37-.11.6.39.72a3.9,3.9,0,0,1,1.17.66.46.46,0,0,1,.1.39,3.21,3.21,0,0,1-.19.63c.73,0,.87-.12.74-.59a1.26,1.26,0,0,1,.1-.76.83.83,0,0,1,.58,0,2.45,2.45,0,0,1,0,.77v.28l.77.11c-.12-.39-.33-.72-.28-1a1.61,1.61,0,0,1,.52-.87.8.8,0,0,1,1.16,0,1.6,1.6,0,0,1,.53.84c0,.32-.21.65-.36,1.06l.92-.12c-.11-.25-.22-.36-.22-.48s0-.49.13-.59a.64.64,0,0,1,.6,0c.14.13.14.43.16.65s-.14.5-.06.57a2,2,0,0,0,.72.23C34.41,30.35,34.35,30,34.3,29.73ZM12.83,15.9l0-.36a5.13,5.13,0,0,0-1.38-.18c-1.54.21-3.07.52-4.61.75a1,1,0,0,1-.72-.26c-.62-.67-1.2-1.4-1.79-2.09a7.21,7.21,0,0,0-3.22,3.12l5.69,2.81A10.07,10.07,0,0,1,8.4,18.14c1.06-.62,2.23-1.08,3.34-1.63C12.11,16.33,12.47,16.11,12.83,15.9Zm42.69,3.91,6-2.95a8.07,8.07,0,0,0-3.25-3.12c-.6.71-1.18,1.43-1.81,2.11a1,1,0,0,1-.7.26c-1.54-.23-3.07-.52-4.61-.76a1.3,1.3,0,0,0-1.46.52c.37.22.69.44,1,.61,1,.48,2,.9,3,1.4A3.07,3.07,0,0,1,55.52,19.81Zm-4,.77,6.62,6.17.24-.15c-.42-1.23-.85-2.45-1.29-3.71l4.1,1.72c0-.08.09-.16.14-.24l-3.92-5C55.65,20.49,53.67,20.46,51.52,20.58ZM1.19,24.36l.15.24,4.08-1.71-1.28,3.7.26.14L11,20.57c-2.14-.1-4.12-.09-5.89-1.18Zm12,14a5.17,5.17,0,0,0,1.33.57,18.06,18.06,0,0,0,3,.17A3.21,3.21,0,0,0,19,38.54c1.16-.7,1-2,1.24-3.08A3.07,3.07,0,0,0,20,34a.9.9,0,0,0-1-.67c.09.44.17.85.25,1.26-.8-1.95-1.55-2.39-3.4-2,0,1,1,1,1.49,1.6-.55.73-1.24-.17-1.79.24,0,.7.51.66,1,.68,1.16.07,1.59.82,1.06,1.95a2.81,2.81,0,0,0-.34-.76,3.35,3.35,0,0,0-.71-.5c-.07.27-.25.56-.21.8.18,1-.08,1.42-1.06,1.59C14.64,38.24,14,38.26,13.18,38.34Zm9.94-8.05a2.52,2.52,0,0,0,.16-.57,4.46,4.46,0,0,0-.13-.73,2,2,0,0,0-.68.31,3,3,0,0,0-.4.73l-.91-.34c-.06.36-.26.78-.14,1.07a11.5,11.5,0,0,0,1.09,1.93c.14.21.45.3.77.5-.29-.61-.53-1.08-.76-1.56.93,1.65,1.9,2.2,3.19,1.67a1.7,1.7,0,0,0,.88-2.24,5.15,5.15,0,0,1-1,.82,1.33,1.33,0,0,1-1.07,0c-.19-.12-.17-.63-.18-1a4.7,4.7,0,0,1,.13-.83ZM14.56,19.51a2.81,2.81,0,0,0-2.2-.36c-.42.14-.74.44-.55.93s.6.34,1,.17a1.56,1.56,0,0,1,1.84.14c-1.19-.21-1.44-.16-1.85.44a6,6,0,0,0,.87.14,2,2,0,0,1,1.95,1.2c.23.44.76.72,1.16,1.08-.62-1.45-1.2-2.81-1.81-4.15a2.07,2.07,0,0,0-.62-.78,1.15,1.15,0,0,0-1.83.56C13.22,18.94,14,18.77,14.56,19.51ZM10.67,38.56c.7.37,1.13.22,1.58-.56l-.62-.52Z"/><path class="cls-2" d="M54.21,41c-.33,1.06-.61,2.13-1,3.16-.09.23-.56.32-.85.47a2.44,2.44,0,0,1-.12-.86,6.93,6.93,0,0,1,1.67-2.87l.31.1"/><path class="cls-2" d="M56.3,36.67a2.06,2.06,0,0,1,2.08,0Z"/><path class="cls-2" d="M4.45,36.67c.64-.57,1.38-.2,2.1,0Z"/><path class="cls-2" d="M38.39,26.41a1.65,1.65,0,0,1,.46-.12c.67,0,1.35-.06,2-.06a2.93,2.93,0,0,0,2.39-1.06,5.36,5.36,0,0,1,3.4-1.62l-2.49,1.37a1.24,1.24,0,0,0-.38.29c-1.32,1.85-3.28,1.48-5.14,1.48a.31.31,0,0,1-.18-.07s0-.07-.09-.21"/><text/><path class="cls-2" d="M41.26,24.11l-.38.71,1.91-.57c-1.18.92-4.83,1.73-5.38,1.12a5.35,5.35,0,0,0,3.85-1.26"/><path class="cls-2" d="M31.64,23V20a4.32,4.32,0,0,1,.2,3h-.2"/><path class="cls-2" d="M17.81,27.36c-.78,1.17-2.16.94-3,1.73l-.12-.23,3.1-1.5"/><path class="cls-2" d="M30.59,23.73l-1-1.69.14-.15a4.22,4.22,0,0,1,.84.85,2.48,2.48,0,0,1,0,1"/><path class="cls-2" d="M33.88,21.71c-.2.62-.39,1.23-.61,1.93a1.5,1.5,0,0,1,.61-1.93"/><path class="cls-2" d="M27.3,25.07l-2-1L25.4,24l2,.84-.13.27"/><path class="cls-2" d="M51.14,31.83a4.41,4.41,0,0,0-4-4.2c-.18,0-.35-.19-.67-.38,2.43,0,5.37,1.93,4.69,4.58"/><path class="cls-2" d="M47.47,27.07c1.89-.18,3.93,1.16,4.16,2.79-.94-1.76-2.51-2.32-4.16-2.79"/><path class="cls-2" d="M10.33,16.14l-3.16,1.8a5.31,5.31,0,0,1,3.16-1.8"/><path class="cls-2" d="M7.35,16.57,5.77,17.76l-.15-.2c.53-.4,1-.81,1.57-1.22l.16.23"/><path class="cls-2" d="M2.4,15.76l1.43-1.35,0,0L2.51,15.88Z"/><path class="cls-2" d="M3,16.16l1.45-1.22c.06.06.11.13.17.2-.49.4-1,.81-1.45,1.22-.06-.07-.12-.13-.17-.2"/><path class="cls-2" d="M55.33,17.93l-3-1.73.13-.23,3,1.72c0,.08-.08.16-.13.24"/><path class="cls-2" d="M58.09,14.92l1.48,1.23-.17.22-1.47-1.24.16-.21"/><path class="cls-2" d="M55.31,16.36l1.62,1.2-.15.21-1.62-1.2.15-.21"/><path class="cls-2" d="M58.69,14.39l1.46,1.36L60,16l-1.44-1.37Z"/><path class="cls-2" d="M53.55,20.82,55.44,23l-.19.17L53.33,21l.22-.18"/><path class="cls-2" d="M58.61,22l-1.53-1.78.2-.17c.52.6,1,1.19,1.58,1.79l-.25.16"/><path class="cls-2" d="M54.88,20.88l1,1.33-.21.17-1-1.33.21-.17"/><path class="cls-2" d="M56.28,20.46l1,1.34-.21.15-1-1.38.25-.11"/><path class="cls-2" d="M7.07,23,9,20.81l.2.16-1.9,2.18L7.07,23"/><path class="cls-2" d="M5.42,20.27,3.88,22.05l-.2-.17,1.54-1.79.2.18"/><path class="cls-2" d="M8,20.85,6.85,22.38l-.22-.15L7.75,20.7l.22.15"/><path class="cls-2" d="M7.1,20.94l-1,1.26-.19-.15,1-1.28.2.17"/><path class="cls-2" d="M6.48,20.6,5.43,22l-.21-.16c.35-.45.7-.91,1.06-1.36l.2.17"/><path class="cls-2" d="M18.68,34.67c1,1.08.54,3.11-.47,3.38a6.07,6.07,0,0,0,.68-1.55,6.81,6.81,0,0,0-.21-1.83"/><path class="cls-3" d="M48.33,66.71l-.77-.53.24.9Zm1.26.26-.42.3L48.69,67l-.78.54.15.56-.41.29L47,65.88l.42-.3Zm-4.08.9.31-.17a1.88,1.88,0,0,0,.37-.22.34.34,0,0,0,.07-.15.3.3,0,0,0,0-.18.31.31,0,0,0-.15-.15.28.28,0,0,0-.2,0l-.31.15-.33.17Zm.21,1.43-1.1-2.1.89-.47a2.1,2.1,0,0,1,.52-.2.55.55,0,0,1,.35.08.64.64,0,0,1,.26.28.59.59,0,0,1,.07.46.74.74,0,0,1-.31.41,1.52,1.52,0,0,1,.32.06,2.27,2.27,0,0,1,.41.21l.47.28-.5.26-.55-.29a2.49,2.49,0,0,0-.38-.19.37.37,0,0,0-.18,0,.59.59,0,0,0-.22.08l-.09,0,.46.88Zm-2,.82-.84-2.21,1.63-.62.15.37-1.19.46.18.49,1.11-.43.14.38-1.1.42.23.6,1.23-.47.14.37Zm-1.9.64L41,68.54l.45-.15.61,1.84,1.13-.37.12.38Zm-.92.24-.62-2.28.46-.13.63,2.29ZM38,69.23l.46-.11.28,1.25a2.73,2.73,0,0,0,.11.39.35.35,0,0,0,.19.19.49.49,0,0,0,.32,0,.47.47,0,0,0,.28-.15.32.32,0,0,0,.08-.22,3.8,3.8,0,0,0-.07-.4l-.29-1.28.47-.1L40.13,70a2.77,2.77,0,0,1,.1.6.69.69,0,0,1-.08.32.68.68,0,0,1-.23.25,1.18,1.18,0,0,1-.42.17,1.21,1.21,0,0,1-.52,0,.63.63,0,0,1-.31-.14.56.56,0,0,1-.19-.22,3.12,3.12,0,0,1-.18-.58Zm-.6,1.91a.79.79,0,0,0,.1-.27,1.09,1.09,0,0,0,0-.36.88.88,0,0,0-.26-.59.67.67,0,0,0-.94.13.94.94,0,0,0-.1.63,1,1,0,0,0,.26.6.61.61,0,0,0,.49.14.6.6,0,0,0,.19-.06,1.35,1.35,0,0,0-.32-.11L37,71A1.57,1.57,0,0,1,37.43,71.14Zm.42.22a1.38,1.38,0,0,0,.4.15l-.13.36a.9.9,0,0,1-.22-.06l-.34-.17a1.35,1.35,0,0,1-.5.17,1.1,1.1,0,0,1-.89-.21,1.46,1.46,0,0,1-.24-1.79,1.12,1.12,0,0,1,.8-.43,1.09,1.09,0,0,1,.87.21,1.26,1.26,0,0,1,.42.85A1.41,1.41,0,0,1,38,71,1.15,1.15,0,0,1,37.85,71.36Zm-4.05.75-.21-2.36,1.75-.16,0,.4-1.27.11,0,.53,1.18-.11,0,.4L34.19,71l.05.64,1.32-.12,0,.4Zm-1.49,0v-2h-.7v-.4h1.87v.4h-.7v2Zm-2.42-1-.3-.89-.35.86Zm.84,1-.52,0L30,71.58l-1,0-.22.53-.5,0,1-2.33.51,0ZM27.67,72l.19-2.36.47,0L28.15,72Zm-1.51-2.79-.2,0v0a.35.35,0,0,1,.12-.25.25.25,0,0,1,.22-.07l.1,0,.17.09a.41.41,0,0,0,.19.08.1.1,0,0,0,.09,0,.29.29,0,0,0,.06-.1l.2,0a.47.47,0,0,1-.12.3.24.24,0,0,1-.21.07l-.11,0-.17-.09a1,1,0,0,0-.21-.09.11.11,0,0,0-.08,0A.16.16,0,0,0,26.16,69.16Zm-.84,2.49.29-2.35.46.06.77,1.7.2-1.58.44.06-.3,2.35-.47-.06L26,70.16l-.19,1.55Zm-.91-1.16-.13-.92-.5.78Zm.65,1.11-.5-.11-.08-.57-.93-.21-.31.49-.49-.11L24.15,69l.5.11Zm-3-2.75-.18.65.25.07a1.15,1.15,0,0,0,.38.06.36.36,0,0,0,.17-.07.32.32,0,0,0,.1-.17.32.32,0,0,0-.17-.37,1.51,1.51,0,0,0-.33-.11Zm-1,1.77.62-2.28.74.2a2.9,2.9,0,0,1,.54.18.63.63,0,0,1,.27.31.81.81,0,0,1,0,.49.85.85,0,0,1-.17.33.69.69,0,0,1-.26.17.51.51,0,0,1-.27,0,2.52,2.52,0,0,1-.48-.09l-.3-.08-.24.86Zm-2.59-1,.86-2.2.67.26-.19,1.65,1-1.35.67.26-.86,2.21-.41-.16.67-1.74-1.11,1.57L19.35,70l.24-1.9-.67,1.73Zm-1.4-2a.92.92,0,0,0-.12.62.61.61,0,0,0,.32.41.63.63,0,0,0,.52,0,1,1,0,0,0,.45-.46.88.88,0,0,0,.12-.62.58.58,0,0,0-.32-.4.6.6,0,0,0-.52-.05A1,1,0,0,0,17.1,67.67Zm-.44-.22A1.47,1.47,0,0,1,17,67a1,1,0,0,1,.35-.19.8.8,0,0,1,.37,0,1.29,1.29,0,0,1,.5.15,1.13,1.13,0,0,1,.58.68,1.23,1.23,0,0,1-.14,1,1.29,1.29,0,0,1-.7.65,1.25,1.25,0,0,1-1.48-.79A1.23,1.23,0,0,1,16.66,67.45Zm-.76-.1.32.36a1,1,0,0,1-.6.31,1.12,1.12,0,0,1-1.13-.85,1.26,1.26,0,0,1,.2-.91,1.32,1.32,0,0,1,.74-.62,1.07,1.07,0,0,1,.86.14,1,1,0,0,1,.46.59.87.87,0,0,1,0,.5l-.46-.15a.5.5,0,0,0,0-.34.47.47,0,0,0-.22-.26.51.51,0,0,0-.46-.07.94.94,0,0,0-.46.44,1,1,0,0,0-.2.63.57.57,0,0,0,.26.38.49.49,0,0,0,.35.07A.71.71,0,0,0,15.9,67.35Z"/><path class="cls-2" d="M53.41,9.29a1.26,1.26,0,0,0-.08,1,1,1,0,0,0,.57.59,1,1,0,0,0,.83,0,1.43,1.43,0,0,0,.67-.78,1.71,1.71,0,0,0,.15-.71.94.94,0,0,0-.17-.54,1,1,0,0,0-.45-.37,1.11,1.11,0,0,0-.82,0,1.48,1.48,0,0,0-.7.85M50.06,7.52l.81.29a1.4,1.4,0,0,0,.45.1.34.34,0,0,0,.22-.07.38.38,0,0,0,.14-.19.34.34,0,0,0,0-.31.76.76,0,0,0-.4-.27l-.92-.32ZM46.31,6.37l.82.24a1.82,1.82,0,0,0,.46.06.32.32,0,0,0,.22-.08.41.41,0,0,0,.12-.2.35.35,0,0,0,0-.3.69.69,0,0,0-.42-.24l-.94-.27ZM28.37,6.13l.59,0A1.71,1.71,0,0,0,29.47,6a.51.51,0,0,0,.25-.16,1,1,0,0,0,.2-.4A2.09,2.09,0,0,0,30,4.79,1.66,1.66,0,0,0,29.77,4a.79.79,0,0,0-.38-.32,1.81,1.81,0,0,0-.57,0l-.58,0Zm-4.54-.67.67-.08-.37-.72s-.05-.09-.08-.14a.29.29,0,0,1,0,.09Zm-6.92.78.83-.19a1.37,1.37,0,0,0,.44-.16.38.38,0,0,0,.15-.18.45.45,0,0,0,0-.23.32.32,0,0,0-.18-.25.66.66,0,0,0-.48,0l-1,.22ZM6.39,10l.69-.31a.89.89,0,0,0,.45-.33.46.46,0,0,0,0-.38.45.45,0,0,0-.19-.22.34.34,0,0,0-.24,0,2.46,2.46,0,0,0-.38.14L6,9.19ZM52.56,8.92A2.28,2.28,0,0,1,53.7,7.66a1.93,1.93,0,0,1,1.56,0,2,2,0,0,1,.85.66,1.85,1.85,0,0,1,.35,1,2.47,2.47,0,0,1-.21,1.11,2.43,2.43,0,0,1-.67.92,1.77,1.77,0,0,1-1,.42,2.15,2.15,0,0,1-1-.16,2,2,0,0,1-.85-.68,1.81,1.81,0,0,1-.35-1A2.28,2.28,0,0,1,52.56,8.92ZM42.9,4.75l-.15.72,2,.41-.17.84-2-.41-.17.84,2.25.46-.17.83-3.15-.63.82-4.08,3.06.62-.17.84ZM40,7.58l.7-4.1.9.16-.7,4.09Zm-2.55-3,1.5.19.2-1.53.91.12L39.52,7.5l-.91-.12.23-1.75-1.5-.2-.23,1.75-.91-.12.54-4.12.91.12Zm-5.17-1,0,.73,2.06.06,0,.85-2.07,0,0,.86,2.29.06,0,.85-3.2-.08.11-4.16,3.12.08,0,.86ZM27.51,7l-.22-4.15,1.49-.08a3.47,3.47,0,0,1,.72,0,1.4,1.4,0,0,1,.65.28,1.67,1.67,0,0,1,.54.69,2.85,2.85,0,0,1,.21,1,2.84,2.84,0,0,1-.06.82,1.86,1.86,0,0,1-.26.62,1.6,1.6,0,0,1-.37.41,1.54,1.54,0,0,1-.5.24,2.39,2.39,0,0,1-.64.11Zm-2.6-.87-1.28.15-.27,1.17-1,.12,1.08-4.32.82-.1,2.18,3.93-1,.12ZM20.47,4.65l-1.21.23L19.1,4l3.32-.63.16.84-1.22.23L22,7.72l-.9.18ZM18.75,6.52a2.59,2.59,0,0,1,.48.38L20.36,8l-1.08.25-.74-.73a4.38,4.38,0,0,0-.45-.41A.87.87,0,0,0,17.86,7l-.18,0a.85.85,0,0,0-.22,0l-.36.08.37,1.62-.89.21-.93-4.06,1.82-.42a2.38,2.38,0,0,1,.84-.07,1,1,0,0,1,.6.31,1.35,1.35,0,0,1,.34.62,1.18,1.18,0,0,1-.13.86A1.25,1.25,0,0,1,18.75,6.52Zm-5.56,0,.21.71,2-.59.24.82-2,.59.25.82,2.2-.65.24.82-3.07.91-1.19-4,3-.89.24.82Zm-2.63,0,.86-.32.83,2.22a2.62,2.62,0,0,1,.2,1,1.27,1.27,0,0,1-.28.79,1.88,1.88,0,0,1-.84.57,2.14,2.14,0,0,1-1,.14,1.2,1.2,0,0,1-.75-.39,2.87,2.87,0,0,1-.51-.9L8.28,7.31,9.13,7,10,9.21a2.1,2.1,0,0,0,.29.58.44.44,0,0,0,.3.15.83.83,0,0,0,.44,0,.93.93,0,0,0,.52-.39,1.37,1.37,0,0,0-.12-.82ZM6.74,10.81l.62,1.4-.84.37L4.83,8.78l1.48-.66a3,3,0,0,1,.57-.21,1.27,1.27,0,0,1,.58,0A1,1,0,0,1,8,8.13a1.38,1.38,0,0,1,.37.49,1.41,1.41,0,0,1,.06,1,1.75,1.75,0,0,1-1,.88Zm41.69-1.4,1.33-3.75,1.76.63a2.44,2.44,0,0,1,.75.39,1,1,0,0,1,.34.58,1.28,1.28,0,0,1,0,.7,1.2,1.2,0,0,1-.57.66,1.21,1.21,0,0,1-.52.13,2.84,2.84,0,0,1,.2.58L52,10.88,51,10.51l-.23-1a5.66,5.66,0,0,0-.15-.59,1.23,1.23,0,0,0-.12-.26.49.49,0,0,0-.13-.12l-.21-.09-.35-.12-.56,1.56-.86-.3v0l-1-.27-.29-1a5.66,5.66,0,0,0-.2-.58.89.89,0,0,0-.14-.25.69.69,0,0,0-.13-.11l-.22-.08-.35-.09-.45,1.59-.88-.24,1.13-4,1.8.5a2.42,2.42,0,0,1,.77.34,1.07,1.07,0,0,1,.38.57,1.25,1.25,0,0,1,0,.69,1.12,1.12,0,0,1-.52.7,1.17,1.17,0,0,1-.51.16,3.14,3.14,0,0,1,.24.57Z"/></g></g></g></svg>